Coordinates
version=1
nRows=17
nColumns=36
inDegrees=yes

Units are S.I. units (second, meters, Newtons, ...)
If the header above contains a line with 'inDegrees', this indicates whether rotational values are in degrees (yes) or radians (no).

endheader
time	pelvis_tilt	pelvis_list	pelvis_rotation	pelvis_tx	pelvis_ty	pelvis_tz	hip_flexion_r	hip_adduction_r	hip_rotation_r	knee_angle_r	knee_angle_r_beta	ankle_angle_r	subtalar_angle_r	mtp_angle_r	hip_flexion_l	hip_adduction_l	hip_rotation_l	knee_angle_l	knee_angle_l_beta	ankle_angle_l	subtalar_angle_l	mtp_angle_l	lumbar_extension	lumbar_bending	lumbar_rotation	arm_flex_r	arm_add_r	arm_rot_r	elbow_flex_r	pro_sup_r	arm_flex_l	arm_add_l	arm_rot_l	elbow_flex_l	pro_sup_l
      6.61666670	     -5.10713616	     -0.42811203	     15.92287434	      0.52681439	      0.90048662	     -0.19404450	     32.25246192	     -8.07364934	     -3.40958808	     11.19251856	      0.19534630	      4.65981209	     -0.25136360	     -7.49999987	      6.60165122	      6.86229168	      2.00618896	     18.50828024	      0.32303043	     24.93442276	     -1.20231212	     -7.49999987	      5.22506916	     -4.35150180	      4.68148397	     30.11815239	      7.77196341	     58.53001804	    124.96235565	    102.93720726	     25.27350084	      1.38166910	     58.12244841	    120.92775038	    106.23386157
      6.63333330	     -5.03246168	     -0.49720147	     15.54172439	      0.52622926	      0.90086406	     -0.19379777	     32.25567974	     -8.04435847	     -4.20464024	     11.55535962	      0.20167907	      4.67009005	     -0.33457011	     -7.49999987	      6.94276132	      6.76371881	      1.72629456	     19.23226136	      0.33566628	     25.22684769	     -1.47943227	     -7.49999987	      5.06638361	     -4.08120878	      4.61230629	     30.00060398	      7.54578975	     58.51696961	    124.99081885	    102.21232643	     25.43796674	      1.57285063	     58.14521473	    121.00005931	    106.57917745
      6.65000000	     -5.01125100	     -0.51420932	     15.19150158	      0.52204707	      0.89993288	     -0.19048090	     32.40299564	     -8.07134329	     -4.90700692	     12.04223822	      0.21017671	      4.39545027	     -0.61015664	     -7.49999987	      7.29396328	      6.73220404	      1.44857047	     19.80250649	      0.34561894	     25.43444881	     -1.62867860	     -7.49999987	      4.78900403	     -3.92779832	      4.51133115	     30.31343589	      7.49095126	     58.56103040	    125.11266331	    102.24075352	     25.91820494	      1.68312969	     58.56312313	    121.38471444	    106.54490983
      6.66666670	     -5.16277474	     -0.58423043	     14.87388631	      0.52178962	      0.89806451	     -0.19052363	     32.78105743	     -8.10652904	     -5.58458810	     12.44430824	      0.21719415	      4.08681702	     -0.89184749	     -7.49999987	      7.84305802	      6.69178918	      1.21924486	     20.36691383	      0.35546970	     25.53416314	     -1.80872474	     -7.49999987	      4.73692932	     -3.72539939	      4.49954598	     30.66568938	      7.39327170	     58.76104766	    125.31494101	    101.28433615	     26.28546018	      2.11947868	     59.79208544	    122.42783702	    105.56414311
      6.68333330	     -5.22178735	     -0.56766451	     14.53470200	      0.52216699	      0.89776312	     -0.19009454	     33.01114929	     -8.17558087	     -6.27499717	     12.59128412	      0.21975936	      3.95157331	     -1.12605197	     -7.49999987	      8.16980696	      6.69770488	      0.97336989	     20.82139888	      0.36340197	     25.62109920	     -2.00929660	     -7.49999987	      4.50169669	     -3.61875897	      4.51708398	     31.07337141	      7.33380029	     59.00706714	    125.57008695	    100.81240321	     26.84693124	      2.45036244	     60.96250385	    123.23172065	    105.15341508
      6.70000000	     -5.21165571	     -0.53108039	     14.03740759	      0.52153323	      0.89577829	     -0.18946356	     33.09961447	     -8.25594196	     -7.16247006	     12.94831563	      0.22599074	      3.62005111	     -1.47844317	     -7.49999987	      8.56024158	      6.67210294	      0.61075092	     21.40909365	      0.37365917	     25.72495432	     -2.28853987	     -7.49999987	      4.32583327	     -3.55189655	      4.82580262	     31.20160918	      7.07158140	     58.57350200	    125.88198364	    102.09510356	     27.35895887	      2.69355072	     61.74845353	    123.56097596	    105.77909644
      6.71666670	     -5.13819325	     -0.57712730	     13.54739148	      0.52615016	      0.90104873	     -0.19175683	     32.89815940	     -8.21432999	     -7.99370777	     12.99064198	      0.22672947	      3.33806745	     -2.03555934	     -7.49999987	      8.52314064	      6.52998397	      0.42226363	     21.52720150	      0.37572054	     25.60146108	     -2.52027121	     -7.49999987	      4.24478855	     -3.31580659	      4.88982862	     30.71672597	      6.64760462	     58.90990043	    126.07458646	    102.09778208	     26.94329539	      2.27762431	     61.57122098	    123.52102506	    105.74552585
      6.73333330	     -5.08949738	     -0.52159961	     13.12511448	      0.52560051	      0.90138624	     -0.19117722	     32.68138685	     -8.30546012	     -8.78481150	     12.76092195	      0.22272010	      2.97237992	     -2.68891516	     -7.49999987	      8.56918532	      6.53706828	      0.25080463	     21.69574929	      0.37866226	     25.31367818	     -2.83288896	     -7.49999987	      4.05425870	     -3.20308554	      4.76144336	     30.54936356	      6.48468071	     59.20206142	    126.10493979	    101.88809784	     26.78260016	      2.33996569	     62.10400178	    124.25854197	    105.91216473
      6.75000000	     -5.38428375	     -0.70510651	     12.82116639	      0.52563887	      0.90171275	     -0.19087585	     33.09005558	     -8.19263297	     -9.25244393	     12.19160807	      0.21278370	      3.43543074	     -2.71373021	     -7.49999987	      9.24606051	      6.39280952	      0.18602771	     22.18245461	      0.38715687	     25.03047990	     -3.12698729	     -7.49999987	      4.30004920	     -2.91912059	      4.68746739	     30.20994273	      6.31815655	     59.57113114	    126.13724339	    100.97574014	     26.41632987	      2.54834486	     63.19793405	    124.76974772	    105.05956526
      6.76666670	     -5.18913101	     -0.65508851	     12.42708061	      0.52491220	      0.90244603	     -0.19036536	     32.65036999	     -8.13856149	     -9.86795748	     11.70389175	      0.20427145	      3.65029779	     -2.79354482	     -7.49999987	      8.97573830	      6.31122787	     -0.05996276	     22.05301551	      0.38489773	     24.73037731	     -3.34363504	     -7.49999987	      3.93370827	     -2.82748476	      4.85786048	     30.38785528	      6.07158120	     59.82804889	    126.24984723	    102.48147123	     26.66317159	      2.76114098	     64.27184803	    124.99499828	    106.26052871
      6.78333330	     -5.20706322	     -0.55614123	     11.99102092	      0.52080016	      0.90184557	     -0.18704376	     32.73994704	     -8.16774417	    -10.44527659	     11.72285276	      0.20460238	      3.41293242	     -3.03763577	     -7.49999987	      9.17560286	      6.29787151	     -0.41553155	     22.21051543	      0.38764662	     24.47898287	     -3.47778878	     -7.49999987	      3.75888289	     -2.90367556	      4.91768640	     30.54837961	      6.04260621	     59.82336448	    126.20439018	    102.50166305	     26.72344285	      2.82225089	     64.31097255	    125.09475463	    106.24108366
      6.80000000	     -5.48086999	     -0.64464791	     11.62542995	      0.52052546	      0.89728915	     -0.18679966	     33.16864352	     -8.08288819	    -10.86123161	     11.77870350	      0.20557716	      2.90686966	     -3.81344122	     -7.49999987	      9.59744545	      6.19381352	     -0.68243205	     22.38075857	      0.39061793	     24.31926125	     -3.74216196	     -7.49999987	      4.01725862	     -2.73974628	      5.03384031	     30.89801592	      6.13678515	     59.66166249	    126.46451407	    100.67096628	     26.82057123	      2.99133267	     64.41634173	    125.74571407	    104.14464517
      6.81666670	     -5.49588544	     -0.55319242	     11.32031826	      0.52083475	      0.90160076	     -0.18629494	     33.13029919	     -8.10900674	    -11.48084993	     11.75228108	      0.20511600	      2.74487411	     -4.11816743	     -7.49999987	      9.60133584	      6.21000783	     -0.93227221	     22.31699953	      0.38950512	     24.22842195	     -3.90800135	     -7.49999987	      4.00265721	     -2.83251673	      5.20168086	     31.02253623	      6.11001772	     59.67939731	    126.38158565	    100.71635433	     26.75554483	      2.88949412	     64.50500714	    125.76826288	    104.17574634
      6.83333330	     -5.40035096	     -0.55870602	     11.06524631	      0.52071569	      0.89979916	     -0.18628274	     32.82156993	     -8.02259202	    -11.80047990	     11.50644161	      0.20082529	      1.82258631	     -5.20211745	     -7.49999987	      9.26967646	      6.17909172	     -0.89893725	     21.94101316	      0.38294292	     23.72552994	     -4.48310033	     -7.49999987	      3.84922494	     -2.67618431	      5.40223568	     31.24565584	      6.01816927	     59.72986968	    126.14048012	    102.73739205	     26.82260477	      2.86211005	     64.62722817	    125.99679726	    106.22160969
      6.85000000	     -5.34662383	     -0.55916718	     10.84362678	      0.52117407	      0.89943298	     -0.18596994	     32.60036495	     -7.97470311	    -12.15094422	     11.28676965	      0.19699129	      1.31928560	     -5.84925527	     -7.49999987	      8.97238578	      6.09981175	     -1.10294870	     21.60542969	      0.37708588	     23.66965813	     -4.33996601	     -7.49999987	      3.82632154	     -2.63787070	      5.59964012	     31.33996902	      5.97948425	     59.57328240	    126.15125099	    102.99858963	     26.83900911	      2.83452665	     64.31906029	    125.97291810	    105.55175841
      6.86666670	     -5.78195826	     -0.74692005	     10.80319823	      0.52063563	      0.89946625	     -0.18549753	     33.25032710	     -7.78192879	    -12.15047356	     10.66401381	      0.18612215	      1.85035492	     -5.57285609	     -7.49999987	      9.66038135	      6.01234892	     -0.89613121	     21.90113255	      0.38224687	     23.52835640	     -4.57716586	     -7.49999987	      4.25336522	     -2.52635843	      5.55513465	     31.12668667	      6.00212900	     59.76074288	    126.11393431	    101.28047888	     26.70029397	      2.87391432	     64.17184164	    126.02907266	    103.58776417
      6.88333330	     -5.82105320	     -0.79374022	     10.75051107	      0.52078502	      0.90032634	     -0.18574236	     33.37861855	     -7.57192811	    -12.13306406	      9.93364315	      0.17337478	      2.79813042	     -4.80562980	     -7.49999987	      9.69422018	      5.96152178	     -0.87604870	     21.93699929	      0.38287287	     23.53605022	     -4.79153649	     -7.49999987	      4.12267132	     -2.49308608	      5.61267681	     31.39778367	      5.94040575	     60.16115556	    126.07538213	    101.31717859	     26.95371226	      2.88528108	     64.64527334	    126.19208404	    103.67996924
